<?xml version="1.0" encoding="UTF-8"?>
<svg id="Calque_1" data-name="Calque 1" xmlns="http://www.w3.org/2000/svg" version="1.1" viewBox="0 0 2158 2500">
  <defs>
    <style>
      .cls-1 {
        fill: #fff;
        stroke-width: 0px;
      }
    </style>
  </defs>
  <path class="cls-1" d="M1064.1,604.9c138.1,0,259.2-53.9,363.4-161.7s156.3-233.2,156.3-376.2S1582.5,28.9,1580,0c-18.2,2.5-31.8,4.5-40.9,6.2-127.3,18.2-239.4,80.6-336.1,187.2-96.7,106.6-145.1,220.6-145.1,342.1s2.1,37.2,6.2,69.4h0ZM1558.9,2500c98.4,0,207.1-67.3,326.2-202s210-292.9,272.8-474.7c-234-120.6-351-293.8-351-519.3s94.7-349.5,284-483.4c-131.5-164.4-305.1-246.7-520.9-246.7s-174,13.6-249.3,40.9l-47.1,17.4-63.3,24.8c-41.3,15.7-79,23.6-112.9,23.6s-61.2-9.1-104.2-27.3l-48.4-19.8-45.9-18.6c-67-28.1-138.9-42.1-215.8-42.1-205.9,0-371.2,69.4-496.1,208.2C62.5,919.7,0,1102.7,0,1329.9s100,615.2,300.1,886.2c138.9,189.2,265.8,283.8,380.7,283.8s97.1-9.5,145.1-28.5l60.8-24.8,48.4-17.4c67.8-24,130.2-35.9,187.3-35.9s129.8,15.3,208.4,45.9l38.4,14.9c80.2,30.6,143.4,45.9,189.7,45.9Z"/>
  <metadata>
    <sfw xmlns="http://ns.adobe.com/SaveForWeb/1.0/">
      <slices/>
      <sliceSourceBounds x="0.05" y="0" width="2157.89" height="2500" bottomLeftOrigin="true"/>
    </sfw>
  </metadata>
</svg>