<?xml version="1.0" encoding="UTF-8"?>
<svg id="Calque_1" data-name="Calque 1" xmlns="http://www.w3.org/2000/svg" version="1.1" viewBox="0 0 2349 2500">
  <defs>
    <style>
      .cls-1 {
        fill: #fff;
        stroke-width: 0px;
      }
    </style>
  </defs>
  <path class="cls-1" d="M839.4,78.5c-382.6,28.3-707.8,54.3-723.1,57.4-42.9,7.6-81.9,36.7-100.2,75L0,244.6l1.5,802.7,2.3,802.7,24.5,49.7c13.8,27.5,107.1,156.1,208.9,288.4,201.3,260.9,215.8,275.5,292.3,283.1,22.2,2.3,189-5.4,369.6-16.1,181.4-11.5,472.1-29.1,646.6-39,745.2-45.2,707-41.4,749.8-78.1,53.6-44.4,49.7,28.3,52-947.3,1.5-827.2.8-881.5-11.5-906.7-14.5-28.3-40.6-48.2-380.3-286.9-227.2-159.2-243.3-167.6-345.1-169.1-42.1-1.5-389.4,21.4-771.2,50.5h0ZM1699.4,183.3c32.1,14.5,267.1,178.3,301.5,209.7,9.2,9.2,12.2,16.8,7.6,21.4-10.7,9.2-1464.5,95.7-1506.6,89.5-19.1-3-47.4-14.5-63.5-25.3-66.6-45.1-231.8-180.6-231.8-190.5,0-26-5.4-26,642.8-72.7,124-8.4,327.5-23.7,451.5-33.7,268.5-21.4,348.9-20.7,398.6,1.5h0ZM2161.5,601.9c10.7,10.7,19.9,31.4,22.9,51.2,2.3,18.4,3.8,361.2,2.3,760.6-2.3,685.6-3,728.4-16.1,748.3-7.6,12.2-22.9,25.3-34.5,29.1-32.1,13-1555.5,99.5-1586.9,90.3-14.5-3.8-34.5-16.1-45.1-26.8l-18.4-19.9-2.3-739.1c-1.5-518.8,0-748.3,6.1-769,4.6-15.3,16.1-33.7,26-39.8,13.8-9.2,104.1-16.8,414.7-35.2,218.1-12.2,555.5-32.9,749.1-44.4,460.5-28.4,459-28.4,482-5.4h0Z"/>
  <path class="cls-1" d="M1752.2,855.1c-82.6,5.4-156.1,13-164.5,17.6-25.3,13-40.6,34.5-43.6,58.9-2.3,25.3,5.4,28.3,88,38.3l36,4.6v326.7c0,194.3-3,322.9-6.9,319.1-3.8-4.6-112.5-169.8-241.8-367.3-129.3-198.2-236.4-361.2-238-362.7-1.5-1.5-85.7,3-186.7,10-124,8.4-192.1,16.1-205.8,23.7-22.2,11.5-46.7,52-46.7,78.8s29.1,24.5,90.3,24.5h32.1v939.6l-52,16.1c-40.6,12.2-54.3,19.9-61.2,35.2-12.2,26-11.5,49.7.8,49.7s91.1-5.4,190.5-11.5c196.7-11.5,218.8-16.8,239.5-57.4,6.1-12.2,11.5-25.3,11.5-29.1s-26.8-12.2-58.9-19.9c-32.9-7.6-65.8-15.3-72.7-16.8-13-3.8-13.8-27.5-13.8-356.6v-352.8l232.6,365c244.1,382.6,274.7,426.2,312.2,445.3,46.7,24.5,165.3,7.6,225-31.4l18.4-11.5,1.5-521.8,2.3-522.6,40.6-7.6c48.2-9.2,70.4-31.4,70.4-69.6s-1.5-26-24.5-25.3c-13.7.6-92.5,5.2-174.4,10.6h0Z"/>
  <metadata>
    <sfw xmlns="http://ns.adobe.com/SaveForWeb/1.0/">
      <slices/>
      <sliceSourceBounds x="0" y="28.35" width="2348.04" height="2443.73" bottomLeftOrigin="true"/>
    </sfw>
  </metadata>
</svg>